# xmcd CD database file
#
# Track frame offsets:
#	150
#	10330
#	21801
#	32622
#	43677
#	54004
#	65527
#	76790
#	88651
#	99342
#	112399
#	123454
#	134691
#	146292
#	157893
#	169702
#	180003
#	190694
#	202269
#	212544
#	221233
#	232340
#	244996
#	254101
#
# Disc length: 3527 seconds
#
# Revision: 0
# Processed by: cddbd v1.5.2PL0 Copyright (c) Steve Scherf et al.
# Submitted via: CDex 1.51
#
DISCID=560dc518
DTITLE=Patsy Cline - The Country Biography
DYEAR=2007
DGENRE=Country
TTITLE0=Three Cigarettes (In an Ashtray)
TTITLE1=Walking After Midnight
TTITLE2=I Cried All the Way to the Alter
TTITLE3=I Can't Forget You
TTITLE4=Pick Me Up on Your Way Down
TTITLE5=I've Loved and Lost Again
TTITLE6=Just Out of Reach
TTITLE7=If I Could Only Stay Asleep
TTITLE8=Honky Tonk Merry Go Round
TTITLE9=If I Could See the World
TTITLE10=Stop the World (And Let Me Off)
TTITLE11=Hungry for Love
TTITLE12=Let the Teardrop Fall
TTITLE13=Never No More
TTITLE14=Today, Tomorrow and Forever
TTITLE15=Walking Dream
TTITLE16=I Can See an Angel
TTITLE17=In Care of the Blues
TTITLE18=Too Many Secrets
TTITLE19=Ain't No Wheels on This Ship
TTITLE20=Hidin' Out
TTITLE21=Fingerprints
TTITLE22=I Love You Honey
TTITLE23=I Don't Wanna
EXTD=YEAR: 2007
EXTT0=
EXTT1=
EXTT2=
EXTT3=
EXTT4=
EXTT5=
EXTT6=
EXTT7=
EXTT8=
EXTT9=
EXTT10=
EXTT11=
EXTT12=
EXTT13=
EXTT14=
EXTT15=
EXTT16=
EXTT17=
EXTT18=
EXTT19=
EXTT20=
EXTT21=
EXTT22=
EXTT23=
PLAYORDER=
